<?xml version="1.0" encoding="utf-8"?>
<!-- Generator: Adobe Illustrator 16.0.0, SVG Export Plug-In . SVG Version: 6.00 Build 0)  -->
<!DOCTYPE svg PUBLIC "-//W3C//DTD SVG 1.1//EN" "http://www.w3.org/Graphics/SVG/1.1/DTD/svg11.dtd">
<svg version="1.1" id="Layer_1" xmlns="http://www.w3.org/2000/svg" xmlns:xlink="http://www.w3.org/1999/xlink" x="0px" y="0px"
	 width="473px" height="366px" viewBox="0 0 473 366" enable-background="new 0 0 473 366" xml:space="preserve">
<rect y="1" display="none" fill="#293F5A" stroke="#000000" stroke-miterlimit="10" width="473" height="366"/>
<image display="none" overflow="visible" width="473" height="366" xlink:href="../../../../../../intlcrAppui/arc.png"  transform="matrix(0.9999 0 0 0.9999 1.0596 1.0459)">
</image>
<g display="none">
	<path display="inline" fill="#74C8AF" d="M337.438,64.976c-2.059-1.731-4.166-3.404-6.313-5.028l-10.335,6.066
		c2.318,1.642,4.593,3.34,6.808,5.112L337.438,64.976z"/>
	<polygon display="inline" fill="#74C8AF" points="365,94.536 341.538,99 347.25,107.5 370.675,103.825 	"/>
	<path display="inline" fill="#74C8AF" d="M353.148,80.185l-11.61,3.655c2.102,2.182,4.128,4.436,6.091,6.746l11.017-3.949
		C356.872,84.435,355.036,82.286,353.148,80.185z"/>
	<path display="inline" fill="#74C8AF" d="M318.908,51.569l-9.517,7.137c2.403,1.384,4.756,2.844,7.069,4.36l9.703-6.718
		C323.789,54.694,321.376,53.092,318.908,51.569z"/>
	<path display="inline" fill="#74C8AF" d="M303.441,55.476l8.83-7.76c-2.348-1.293-4.721-2.548-7.141-3.722l-8.864,8.007
		C298.698,53.088,301.083,54.26,303.441,55.476z"/>
	<path display="inline" fill="#74C8AF" d="M332.2,74.976c1.931,1.68,3.821,3.404,5.661,5.182l10.771-4.813
		c-1.759-1.798-3.574-3.54-5.417-5.252L332.2,74.976z"/>
	<path display="inline" fill="#74C8AF" d="M192.423,46.708c14.191-4.671,29.342-7.208,45.077-7.208
		c17.522,0,34.325,3.138,49.88,8.876l9.197-8.207C278.353,32.656,258.404,28.5,237.5,28.5c-15.67,0-30.803,2.339-45.077,6.671
		V46.708z"/>
	<path display="inline" fill="#74C8AF" d="M374.56,110.633l-11.826,1.375C374.976,133.217,382,157.8,382,184
		c0,79.678-64.822,144.5-144.5,144.5S93,263.678,93,184c0-35.587,12.935-68.208,34.346-93.414h11.824
		c0,0,12.164-19.32,41.664-30.638L182,38.747C123.585,61.142,82,117.801,82,184c0,85.743,69.757,155.5,155.5,155.5
		S393,269.743,393,184C393,157.482,386.314,132.501,374.56,110.633z"/>
	<path display="inline" fill="#74C8AF" d="M374.56,110.633l-11.826,1.375C374.976,133.217,382,157.8,382,184
		c0,79.678-64.822,144.5-144.5,144.5S93,263.678,93,184c0-35.587,12.935-68.208,34.346-93.414h11.824
		c0,0,12.164-19.32,41.664-30.638L182,38.747C123.585,61.142,82,117.801,82,184c0,85.743,69.757,155.5,155.5,155.5
		S393,269.743,393,184C393,157.482,386.314,132.501,374.56,110.633z"/>
</g>
<g display="none">
	<path display="inline" opacity="0.3" fill="#A09F9F" d="M151.5,284.605c-26.693-22.83-44.337-56.14-46.25-93.906
		c-1.769-34.923,10.233-67.412,31.225-92.199h-12.89c-19.35,25.736-30.155,58.113-28.402,92.71
		c2.211,43.652,23.954,81.77,56.317,106.324V284.605z"/>
	<path display="inline" opacity="0" fill="#74C8AF" d="M374.56,110.633l-11.826,1.375C374.976,133.217,382,157.8,382,184
		c0,79.678-64.822,144.5-144.5,144.5S93,263.678,93,184S157.822,39.5,237.5,39.5c17.522,0,34.325,3.138,49.88,8.876l9.197-8.207
		C278.353,32.656,258.404,28.5,237.5,28.5C151.757,28.5,82,98.257,82,184s69.757,155.5,155.5,155.5S393,269.743,393,184
		C393,157.482,386.314,132.501,374.56,110.633z"/>
	<g display="inline">
		<path opacity="0.3" fill="#A09F9F" d="M367.256,210.5h10.265c2.06-10.882,2.882-22.171,2.297-33.709
			c-1.229-24.271-8.507-46.823-20.278-66.292l-10.76,1.807c12.188,18.844,19.756,41.017,20.971,64.996
			C370.327,188.686,369.44,199.813,367.256,210.5z"/>
	</g>
</g>
<g>
	<path fill="#74C8AF" d="M85.353,131.313c-1.063,3.062-2.026,6.171-2.906,9.314l3.626,0.024c0.901-3.146,1.902-6.251,2.991-9.313
		L85.353,131.313z"/>
	<path fill="#999999" d="M90.288,128.013c22.759-59.653,80.76-101.961,148.268-101.509c20.568,0.138,40.191,4.252,58.172,11.577
		l2.936-2.585c-18.816-7.905-39.441-12.347-61.084-12.492c-69.467-0.465-129.092,43.363-152.028,104.984L90.288,128.013z"/>
	<path fill="#74C8AF" d="M81.635,143.622c-1.077,4.153-1.987,8.373-2.732,12.648l3.548,0.024c0.762-4.277,1.688-8.498,2.788-12.648
		L81.635,143.622z"/>
	<path fill="#74C8AF" d="M87.063,230.657c-4.687-15.075-7.171-31.104-7.06-47.712c0.051-7.581,0.651-15.031,1.741-22.322
		l-3.535-0.023c-1.066,7.295-1.655,14.745-1.706,22.322c-0.111,16.586,2.305,32.612,6.884,47.711L87.063,230.657z"/>
	<path fill="#74C8AF" d="M195.847,335.899c-50.192-13.775-90.384-51.802-107.246-100.566l-3.711-0.024
		c16.847,49.968,57.603,89.086,108.677,103.589L195.847,335.899z"/>
	<path opacity="0.7" fill="#74C8AF" d="M380.355,108.757l-12.292,1.346c12.567,22.113,19.69,47.692,19.509,74.903
		c-0.555,82.75-68.328,149.62-151.078,149.066c-82.75-0.555-149.621-68.328-149.066-151.078
		c0.555-82.75,68.327-149.621,151.078-149.066c18.198,0.122,35.627,3.498,51.741,9.566l9.609-8.459
		c-18.874-7.93-39.563-12.385-61.274-12.531C149.532,21.907,76.6,93.868,76.003,182.918s71.365,161.981,160.415,162.578
		s161.981-71.364,162.578-160.414C399.181,157.542,392.41,131.551,380.355,108.757z"/>
</g>
</svg>
